<?xml version="1.0" encoding="UTF-8" ?>
<svg
  width="24px"
  height="24px"
  viewBox="0 0 24 24"
  version="1.1"
  xmlns="http://www.w3.org/2000/svg"
  xmlns:xlink="http://www.w3.org/1999/xlink"
>
  <title>yml-d</title>
  <g id="yml-d" stroke="none" fill="none" fill-rule="nonzero">
    <g id="filetype-yml" fill="color(display-p3 1.000 1.000 1.000)">
      <path
        d="M21,6.75 L21,21 C21,22.6568542 19.6568542,24 18,24 L18,22.5 C18.8284271,22.5 19.5,21.8284271 19.5,21 L19.5,6.75 L16.5,6.75 C15.2573593,6.75 14.25,5.74264069 14.25,4.5 L14.25,1.5 L6,1.5 C5.17157288,1.5 4.5,2.17157288 4.5,3 L4.5,16.5 L3,16.5 L3,3 C3,1.34314575 4.34314575,0 6,0 L14.25,0 L21,6.75 Z M3.1995,23.7735 L3.1995,21.471 L5.208,17.775 L3.924,17.775 L2.6415,20.319 L2.5935,20.319 L1.314,17.775 L0,17.775 L2.0085,21.4935 L2.0085,23.7735 L3.1995,23.7735 Z M6.63,23.7735 L6.63,19.7835 L6.687,19.7835 L8.115,23.022 L8.889,23.022 L10.308,19.782 L10.365,19.782 L10.365,23.7735 L11.4375,23.7735 L11.4375,17.775 L10.2375,17.775 L8.5275,21.669 L8.49,21.669 L6.78,17.775 L5.5725,17.775 L5.5725,23.7735 L6.63,23.7735 Z M13.695,22.7625 L16.239,22.7625 L16.239,23.7735 L12.507,23.7735 L12.507,17.775 L13.6935,17.775 L13.6935,22.7625 L13.695,22.7625 Z"
        id="Shape"
      />
    </g>
  </g>
</svg>
